<svg width="32" height="30" viewBox="0 0 32 30" fill="none" xmlns="http://www.w3.org/2000/svg">
<path d="M11.5224 0C14.5784 0 17.5092 1.17398 19.67 3.26367C21.8309 5.35336 23.0449 8.18759 23.0449 11.1429C23.0449 13.9029 21.999 16.44 20.2795 18.3943L20.7581 18.8571H22.1586L31.022 27.4286L28.3629 30L19.4995 21.4286V20.0743L19.0209 19.6114C16.9301 21.3373 14.2714 22.2855 11.5224 22.2857C8.4665 22.2857 5.53572 21.1117 3.37485 19.022C1.21397 16.9324 0 14.0981 0 11.1429C0 8.18759 1.21397 5.35336 3.37485 3.26367C5.53572 1.17398 8.4665 0 11.5224 0ZM11.5224 3.42857C7.09074 3.42857 3.54537 6.85714 3.54537 11.1429C3.54537 15.4286 7.09074 18.8571 11.5224 18.8571C15.9542 18.8571 19.4995 15.4286 19.4995 11.1429C19.4995 6.85714 15.9542 3.42857 11.5224 3.42857Z" fill="#3F739C"/>
</svg>
