<svg width="49" height="49" viewBox="0 0 49 49" fill="none" xmlns="http://www.w3.org/2000/svg">
<g filter="url(#filter0_d_621_10)">
<path d="M36.1667 22.7352L28.575 29.3768H18.3875V27.1481H26.6699C26.8542 27.148 27.035 27.0932 27.1931 26.9896C27.3511 26.886 27.4806 26.7374 27.5675 26.5597C27.6545 26.382 27.6958 26.1818 27.687 25.9805C27.6782 25.7792 27.6196 25.5842 27.5175 25.4164L25.7082 22.4477C25.3371 21.8366 24.8334 21.3355 24.2422 20.989C23.651 20.6425 22.9906 20.4614 22.3199 20.4619H6.1625C5.62212 20.4619 5.10388 20.6967 4.72177 21.1147C4.33966 21.5327 4.125 22.0996 4.125 22.6906V36.063C4.125 37.2452 4.55433 38.379 5.31854 39.2149C6.08275 40.0509 7.11924 40.5205 8.2 40.5205H27.8395C28.7107 40.5207 29.5719 40.3172 30.3654 39.9236C31.1589 39.53 31.8663 38.9554 32.4401 38.2383L44.875 22.6906L41.9165 21.6119C40.9486 21.259 39.9153 21.1769 38.9109 21.3731C37.9066 21.5694 36.9631 22.0376 36.1667 22.7352ZM39.2882 10.1875C40.2071 9.1511 40.7756 7.71802 40.7756 6.13562C40.7756 4.55322 40.2071 3.12015 39.2882 2.08378C38.8235 1.5533 38.2655 1.13099 37.6479 0.84222C37.0303 0.553447 36.3657 0.40416 35.694 0.40332C35.694 0.40332 33.1594 0.396634 30.6125 3.26947C28.0656 0.396634 25.531 0.40332 25.531 0.40332C24.8595 0.404255 24.1951 0.553365 23.5775 0.841729C22.96 1.13009 22.4019 1.55178 21.9368 2.08156C21.0179 3.12015 20.4494 4.55099 20.4494 6.13339C20.4494 7.71579 21.0179 9.1511 21.9368 10.1852L30.6125 20.4619L39.2882 10.1875Z" fill="#FCFCFC"/>
</g>
<defs>
<filter id="filter0_d_621_10" x="0.125" y="0.40332" width="48.75" height="48.1172" filterUnits="userSpaceOnUse" color-interpolation-filters="sRGB">
<feFlood flood-opacity="0" result="BackgroundImageFix"/>
<feColorMatrix in="SourceAlpha" type="matrix" values="0 0 0 0 0 0 0 0 0 0 0 0 0 0 0 0 0 0 127 0" result="hardAlpha"/>
<feOffset dy="4"/>
<feGaussianBlur stdDeviation="2"/>
<feComposite in2="hardAlpha" operator="out"/>
<feColorMatrix type="matrix" values="0 0 0 0 0 0 0 0 0 0 0 0 0 0 0 0 0 0 0.25 0"/>
<feBlend mode="normal" in2="BackgroundImageFix" result="effect1_dropShadow_621_10"/>
<feBlend mode="normal" in="SourceGraphic" in2="effect1_dropShadow_621_10" result="shape"/>
</filter>
</defs>
</svg>
