<svg width="49" height="49" viewBox="0 0 49 49" fill="none" xmlns="http://www.w3.org/2000/svg">
<g filter="url(#filter0_d_621_14)">
<path d="M24.5 35.2176C19.4062 35.2176 14.9034 32.6501 12.275 28.7988C12.3361 24.7871 20.425 22.5807 24.5 22.5807C28.575 22.5807 36.6639 24.7871 36.725 28.7988C35.378 30.7734 33.5584 32.3916 31.4266 33.5109C29.2948 34.6303 26.9161 35.2164 24.5 35.2176ZM24.5 6.73438C26.1211 6.73438 27.6759 7.36837 28.8222 8.49688C29.9685 9.6254 30.6125 11.156 30.6125 12.752C30.6125 14.3479 29.9685 15.8785 28.8222 17.007C27.6759 18.1355 26.1211 18.7695 24.5 18.7695C22.8789 18.7695 21.3241 18.1355 20.1778 17.007C19.0315 15.8785 18.3875 14.3479 18.3875 12.752C18.3875 11.156 19.0315 9.6254 20.1778 8.49688C21.3241 7.36837 22.8789 6.73438 24.5 6.73438ZM24.5 0.716797C21.8243 0.716797 19.1748 1.23563 16.7028 2.24367C14.2308 3.25171 11.9847 4.72921 10.0927 6.59182C6.27165 10.3535 4.125 15.4555 4.125 20.7754C4.125 26.0953 6.27165 31.1972 10.0927 34.959C11.9847 36.8216 14.2308 38.2991 16.7028 39.3071C19.1748 40.3152 21.8243 40.834 24.5 40.834C29.9038 40.834 35.0862 38.7207 38.9073 34.959C42.7284 31.1972 44.875 26.0953 44.875 20.7754C44.875 9.68299 35.7062 0.716797 24.5 0.716797Z" fill="#FCFCFC"/>
</g>
<defs>
<filter id="filter0_d_621_14" x="0.125" y="0.716797" width="48.75" height="48.1172" filterUnits="userSpaceOnUse" color-interpolation-filters="sRGB">
<feFlood flood-opacity="0" result="BackgroundImageFix"/>
<feColorMatrix in="SourceAlpha" type="matrix" values="0 0 0 0 0 0 0 0 0 0 0 0 0 0 0 0 0 0 127 0" result="hardAlpha"/>
<feOffset dy="4"/>
<feGaussianBlur stdDeviation="2"/>
<feComposite in2="hardAlpha" operator="out"/>
<feColorMatrix type="matrix" values="0 0 0 0 0 0 0 0 0 0 0 0 0 0 0 0 0 0 0.25 0"/>
<feBlend mode="normal" in2="BackgroundImageFix" result="effect1_dropShadow_621_14"/>
<feBlend mode="normal" in="SourceGraphic" in2="effect1_dropShadow_621_14" result="shape"/>
</filter>
</defs>
</svg>
