<svg width="68" height="68" viewBox="0 0 68 68" fill="none" xmlns="http://www.w3.org/2000/svg">
<g filter="url(#filter0_d_98_406)">
<path d="M34 51.6C26.5 51.6 19.87 47.76 16 42C16.09 36 28 32.7 34 32.7C40 32.7 51.91 36 52 42C50.0167 44.9532 47.3376 47.3735 44.1987 49.0475C41.0598 50.7216 37.5574 51.5982 34 51.6ZM34 9C36.3869 9 38.6761 9.94821 40.364 11.636C42.0518 13.3239 43 15.6131 43 18C43 20.3869 42.0518 22.6761 40.364 24.364C38.6761 26.0518 36.3869 27 34 27C31.6131 27 29.3239 26.0518 27.636 24.364C25.9482 22.6761 25 20.3869 25 18C25 15.6131 25.9482 13.3239 27.636 11.636C29.3239 9.94821 31.6131 9 34 9ZM34 0C30.0603 0 26.1593 0.775973 22.5195 2.28361C18.8797 3.79126 15.5726 6.00104 12.7868 8.7868C7.16071 14.4129 4 22.0435 4 30C4 37.9565 7.16071 45.5871 12.7868 51.2132C15.5726 53.999 18.8797 56.2087 22.5195 57.7164C26.1593 59.224 30.0603 60 34 60C41.9565 60 49.5871 56.8393 55.2132 51.2132C60.8393 45.5871 64 37.9565 64 30C64 13.41 50.5 0 34 0Z" fill="#2B2828"/>
</g>
<defs>
<filter id="filter0_d_98_406" x="0" y="0" width="68" height="68" filterUnits="userSpaceOnUse" color-interpolation-filters="sRGB">
<feFlood flood-opacity="0" result="BackgroundImageFix"/>
<feColorMatrix in="SourceAlpha" type="matrix" values="0 0 0 0 0 0 0 0 0 0 0 0 0 0 0 0 0 0 127 0" result="hardAlpha"/>
<feOffset dy="4"/>
<feGaussianBlur stdDeviation="2"/>
<feComposite in2="hardAlpha" operator="out"/>
<feColorMatrix type="matrix" values="0 0 0 0 0 0 0 0 0 0 0 0 0 0 0 0 0 0 0.25 0"/>
<feBlend mode="normal" in2="BackgroundImageFix" result="effect1_dropShadow_98_406"/>
<feBlend mode="normal" in="SourceGraphic" in2="effect1_dropShadow_98_406" result="shape"/>
</filter>
</defs>
</svg>
