<svg width="15" height="15" viewBox="0 0 15 15" fill="none" xmlns="http://www.w3.org/2000/svg">
<path d="M14.9211 0.203538C14.915 0.173899 14.9005 0.146618 14.8795 0.124893C14.8584 0.103169 14.8316 0.0879015 14.8022 0.0808808C12.8411 -0.399025 8.30994 1.31114 5.85499 3.76731C5.41713 4.20202 5.01796 4.67411 4.66201 5.1782C3.90497 5.11118 3.14792 5.16714 2.50271 5.44865C0.682262 6.25062 0.152232 8.34317 0.0045731 9.24333C-0.00380236 9.29259 -0.000643133 9.34314 0.0138022 9.39098C0.0282475 9.43882 0.0535851 9.48265 0.0878221 9.51903C0.122059 9.55541 0.164262 9.58334 0.211111 9.60063C0.25796 9.61792 0.308178 9.6241 0.357815 9.61867L3.28118 9.29594C3.28327 9.51654 3.29657 9.7369 3.32103 9.95615C3.33574 10.1084 3.40327 10.2507 3.51188 10.3583L4.64393 11.4887C4.75154 11.5973 4.89365 11.6648 5.04572 11.6797C5.26355 11.7041 5.48247 11.7174 5.70164 11.7196L5.38088 14.6419C5.37553 14.6916 5.38175 14.7418 5.39905 14.7887C5.41634 14.8355 5.44425 14.8778 5.48058 14.912C5.51691 14.9463 5.56067 14.9716 5.60844 14.9861C5.6562 15.0006 5.70667 15.0038 5.75589 14.9955C6.65356 14.8514 8.7479 14.3209 9.54445 12.4988C9.8257 11.853 9.88329 11.0989 9.81833 10.3449C10.3232 9.9886 10.7961 9.58895 11.2316 9.15049C13.6943 6.69802 15.3932 2.26392 14.9211 0.203538ZM8.77468 6.22481C8.54981 5.99988 8.39664 5.71326 8.33454 5.40119C8.27244 5.08912 8.30421 4.76562 8.42582 4.47162C8.54743 4.17762 8.75342 3.92633 9.01774 3.74953C9.28206 3.57272 9.59283 3.47835 9.91075 3.47835C10.2287 3.47835 10.5394 3.57272 10.8038 3.74953C11.0681 3.92633 11.2741 4.17762 11.3957 4.47162C11.5173 4.76562 11.5491 5.08912 11.487 5.40119C11.4249 5.71326 11.2717 5.99988 11.0468 6.22481C10.8977 6.37427 10.7206 6.49285 10.5257 6.57375C10.3307 6.65465 10.1218 6.69629 9.91075 6.69629C9.69972 6.69629 9.49076 6.65465 9.29582 6.57375C9.10088 6.49285 8.92379 6.37427 8.77468 6.22481Z" fill="black"/>
<path d="M4.45936 12.3449C4.2759 12.5362 3.98164 12.6107 3.62745 12.6745C2.8317 12.8156 2.12901 12.1 2.27196 11.2628C2.32653 10.9454 2.48789 10.5005 2.58832 10.396C2.61027 10.3736 2.62488 10.3445 2.63008 10.313C2.63528 10.2814 2.63079 10.249 2.61726 10.2203C2.60374 10.1915 2.58185 10.168 2.55472 10.1529C2.52759 10.1379 2.49659 10.1321 2.46613 10.1364C2.02114 10.1931 1.60715 10.403 1.29008 10.7329C0.50303 11.5526 0.428711 14.5945 0.428711 14.5945C0.428711 14.5945 3.35327 14.5171 4.14032 13.6974C4.45824 13.3676 4.66024 12.9361 4.71379 12.4724C4.72617 12.3268 4.55577 12.24 4.45936 12.3449Z" fill="black"/>
</svg>
