<svg width="86" height="61" viewBox="0 0 86 61" fill="none" xmlns="http://www.w3.org/2000/svg">
<path d="M43 0.896484C18.8877 0.896484 0 14.0734 0 30.8965C0 47.7196 18.8877 60.8965 43 60.8965C67.1122 60.8965 86 47.7196 86 30.8965C86 14.0734 67.1122 0.896484 43 0.896484ZM38.5352 10.1273H43.2293L41.7387 19.358H45.9312C48.59 19.358 50.3745 19.838 51.3922 21.0334C52.3847 22.2149 52.6857 24.1534 52.288 26.7934L50.4247 37.8196H45.6517L47.3681 27.6242C47.5759 26.2257 47.4935 25.2519 47.128 24.7396C46.7661 24.2273 45.967 23.9734 44.7702 23.9734H41.0112L38.743 37.8196H34.0417L38.5352 10.1273V10.1273ZM17.9167 19.358H27.4698C32.0242 19.358 34.7834 23.2903 33.7048 29.1565C32.4507 35.9734 29.0967 37.8196 22.919 37.8196H19.9663L19.0311 44.7426H14.2832L17.9167 19.358ZM55.5417 19.358H65.0948C69.6492 19.358 72.4084 23.2903 71.3298 29.1565C70.0757 35.9734 66.7181 37.8196 60.544 37.8196H57.5913L56.6561 44.7426H51.9082L55.5417 19.358ZM21.9838 23.9734L20.6328 33.2042H23.6966C26.3482 33.2042 28.8136 32.8165 29.2257 27.7211C29.3797 25.7503 28.7419 23.9734 25.6782 23.9734H21.9838ZM59.6087 23.9734L58.2578 33.2042H61.3216C63.9733 33.2042 66.4386 32.8165 66.8507 27.7211C67.0047 25.7503 66.3705 23.9734 63.3032 23.9734H59.6087V23.9734Z" fill="black"/>
</svg>
