<svg width="20" height="26" viewBox="0 0 20 26" fill="none" xmlns="http://www.w3.org/2000/svg">
<path d="M3.33333 13.8125C3.33333 13.597 3.42113 13.3903 3.57741 13.238C3.73369 13.0856 3.94565 13 4.16667 13C4.38768 13 4.59964 13.0856 4.75592 13.238C4.9122 13.3903 5 13.597 5 13.8125C5 14.028 4.9122 14.2347 4.75592 14.387C4.59964 14.5394 4.38768 14.625 4.16667 14.625C3.94565 14.625 3.73369 14.5394 3.57741 14.387C3.42113 14.2347 3.33333 14.028 3.33333 13.8125ZM4.16667 16.25C3.94565 16.25 3.73369 16.3356 3.57741 16.488C3.42113 16.6403 3.33333 16.847 3.33333 17.0625C3.33333 17.278 3.42113 17.4847 3.57741 17.637C3.73369 17.7894 3.94565 17.875 4.16667 17.875C4.38768 17.875 4.59964 17.7894 4.75592 17.637C4.9122 17.4847 5 17.278 5 17.0625C5 16.847 4.9122 16.6403 4.75592 16.488C4.59964 16.3356 4.38768 16.25 4.16667 16.25ZM3.33333 20.3125C3.33333 20.097 3.42113 19.8903 3.57741 19.738C3.73369 19.5856 3.94565 19.5 4.16667 19.5C4.38768 19.5 4.59964 19.5856 4.75592 19.738C4.9122 19.8903 5 20.097 5 20.3125C5 20.528 4.9122 20.7347 4.75592 20.887C4.59964 21.0394 4.38768 21.125 4.16667 21.125C3.94565 21.125 3.73369 21.0394 3.57741 20.887C3.42113 20.7347 3.33333 20.528 3.33333 20.3125ZM7.5 13C7.27899 13 7.06702 13.0856 6.91074 13.238C6.75446 13.3903 6.66667 13.597 6.66667 13.8125C6.66667 14.028 6.75446 14.2347 6.91074 14.387C7.06702 14.5394 7.27899 14.625 7.5 14.625H15.8333C16.0543 14.625 16.2663 14.5394 16.4226 14.387C16.5789 14.2347 16.6667 14.028 16.6667 13.8125C16.6667 13.597 16.5789 13.3903 16.4226 13.238C16.2663 13.0856 16.0543 13 15.8333 13H7.5ZM6.66667 17.0625C6.66667 16.847 6.75446 16.6403 6.91074 16.488C7.06702 16.3356 7.27899 16.25 7.5 16.25H15.8333C16.0543 16.25 16.2663 16.3356 16.4226 16.488C16.5789 16.6403 16.6667 16.847 16.6667 17.0625C16.6667 17.278 16.5789 17.4847 16.4226 17.637C16.2663 17.7894 16.0543 17.875 15.8333 17.875H7.5C7.27899 17.875 7.06702 17.7894 6.91074 17.637C6.75446 17.4847 6.66667 17.278 6.66667 17.0625ZM7.5 19.5C7.27899 19.5 7.06702 19.5856 6.91074 19.738C6.75446 19.8903 6.66667 20.097 6.66667 20.3125C6.66667 20.528 6.75446 20.7347 6.91074 20.887C7.06702 21.0394 7.27899 21.125 7.5 21.125H15.8333C16.0543 21.125 16.2663 21.0394 16.4226 20.887C16.5789 20.7347 16.6667 20.528 16.6667 20.3125C16.6667 20.097 16.5789 19.8903 16.4226 19.738C16.2663 19.5856 16.0543 19.5 15.8333 19.5H7.5ZM3.33333 0C2.44928 0 1.60143 0.34241 0.976311 0.951903C0.351189 1.5614 0 2.38805 0 3.25V22.75C0 23.612 0.351189 24.4386 0.976311 25.0481C1.60143 25.6576 2.44928 26 3.33333 26H16.6667C17.5507 26 18.3986 25.6576 19.0237 25.0481C19.6488 24.4386 20 23.612 20 22.75V8.79775C19.9994 8.1515 19.7356 7.53193 19.2667 7.07525L12.7433 0.713375C12.2747 0.25672 11.6392 0.000137932 10.9767 0H3.33333ZM1.66667 3.25C1.66667 2.81902 1.84226 2.4057 2.15482 2.10095C2.46738 1.7962 2.89131 1.625 3.33333 1.625H10V7.3125C10 7.95897 10.2634 8.57895 10.7322 9.03607C11.2011 9.49319 11.837 9.75 12.5 9.75H18.3333V22.75C18.3333 23.181 18.1577 23.5943 17.8452 23.899C17.5326 24.2038 17.1087 24.375 16.6667 24.375H3.33333C2.89131 24.375 2.46738 24.2038 2.15482 23.899C1.84226 23.5943 1.66667 23.181 1.66667 22.75V3.25ZM17.9883 8.125H12.5C12.279 8.125 12.067 8.0394 11.9107 7.88702C11.7545 7.73465 11.6667 7.52799 11.6667 7.3125V1.96137L17.9883 8.125Z" fill="black"/>
</svg>
