<svg width="60" height="61" viewBox="0 0 60 61" fill="none" xmlns="http://www.w3.org/2000/svg">
<path d="M30 35.5352C32.5888 35.5352 34.6875 33.4365 34.6875 30.8477C34.6875 28.2588 32.5888 26.1602 30 26.1602C27.4112 26.1602 25.3125 28.2588 25.3125 30.8477C25.3125 33.4365 27.4112 35.5352 30 35.5352Z" fill="#00D8FF"/>
<path d="M30 41.5954C24.3659 41.7317 18.7459 40.9722 13.35 39.3454C10.8574 38.5552 8.53263 37.3105 6.49313 35.6741C5.71487 35.1151 5.06676 34.3943 4.59327 33.5613C4.11977 32.7282 3.83211 31.8026 3.75 30.8479C3.75 27.7485 7.155 24.711 12.8587 22.7235C18.3989 20.9624 24.1874 20.1089 30 20.196C35.7351 20.1159 41.446 20.954 46.9162 22.6785C49.3168 23.4438 51.5627 24.6283 53.55 26.1772C54.315 26.7102 54.9533 27.4049 55.4199 28.212C55.8865 29.0191 56.1699 29.919 56.25 30.8479C56.25 34.0691 52.4438 37.3335 46.3125 39.3622C41.0211 40.9361 35.5197 41.6892 30 41.5954ZM30 22.4385C24.439 22.3642 18.9015 23.1756 13.5956 24.8422C8.34562 26.6741 5.9925 29.1791 5.9925 30.8422C5.9925 32.5822 8.52188 35.3179 14.0756 37.2172C19.2376 38.7657 24.6124 39.4865 30 39.3529C35.2808 39.4473 40.5449 38.7328 45.6094 37.2341C51.375 35.3235 54 32.5841 54 30.8479C53.9054 30.252 53.6883 29.6823 53.3623 29.1747C53.0364 28.667 52.6087 28.2325 52.1063 27.8985C50.3283 26.5244 48.3219 25.4746 46.1794 24.7972C40.9463 23.1543 35.4843 22.358 30 22.4385Z" fill="#00D8FF"/>
<path d="M19.3498 54.2271C18.4751 54.2472 17.6107 54.035 16.8448 53.6121C14.1598 52.0634 13.2298 47.5971 14.3566 41.6627C15.5991 35.9835 17.7519 30.5427 20.7316 25.5509C23.5268 20.5429 27.1051 16.0145 31.331 12.1371C33.1932 10.4397 35.3414 9.08564 37.676 8.13774C38.5204 7.74201 39.4416 7.53687 40.3741 7.53687C41.3067 7.53687 42.2278 7.74201 43.0723 8.13774C45.8641 9.74649 46.7885 14.674 45.4854 20.9984C44.2046 26.3694 42.1077 31.5123 39.2679 36.2477C36.5711 41.1965 33.1055 45.6856 29.0004 49.5471C27.0706 51.3111 24.831 52.7026 22.3948 53.6515C21.4194 54.0135 20.3899 54.2081 19.3498 54.2271ZM22.6741 26.6646C19.8318 31.4446 17.7685 36.6466 16.5616 42.0752C15.5248 47.5409 16.5204 50.8277 17.9679 51.664C19.4679 52.5321 23.1091 51.709 27.5304 47.8465C31.4492 44.147 34.7571 39.85 37.331 35.1152C40.0515 30.5881 42.0629 25.6711 43.2954 20.5352C44.5216 14.5821 43.4623 10.9371 41.9585 10.0709C41.3949 9.85492 40.7926 9.75825 40.1898 9.78697C39.5869 9.8157 38.9965 9.96919 38.456 10.2377C36.3779 11.0953 34.4674 12.3127 32.8123 13.834C28.7748 17.548 25.3567 21.8833 22.6873 26.6759L22.6741 26.6646Z" fill="#00D8FF"/>
<path d="M40.6441 54.2514C38.1035 54.2514 34.8766 52.714 31.5166 49.8246C27.2167 45.912 23.5778 41.3297 20.741 36.2552C17.7986 31.3321 15.6628 25.97 14.4147 20.3721C13.8734 17.9092 13.7731 15.3699 14.1185 12.8721C14.1983 11.9455 14.4805 11.0476 14.945 10.2419C15.4096 9.43623 16.0453 8.74226 16.8072 8.20894C19.5953 6.59457 24.326 8.25394 29.1541 12.5402C33.1677 16.3318 36.5761 20.7165 39.2603 25.5414C42.2009 30.3496 44.359 35.5943 45.6541 41.0796C46.2187 43.6328 46.3058 46.2684 45.911 48.8533C45.817 49.8066 45.5181 50.7283 45.0345 51.5552C44.551 52.3821 43.8944 53.0946 43.1097 53.644C42.3563 54.0616 41.5053 54.2712 40.6441 54.2514ZM22.6816 35.1264C25.403 39.976 28.879 44.3615 32.9791 48.1183C37.196 51.7464 40.541 52.5264 41.9791 51.6808C43.4791 50.8089 44.5853 47.2502 43.4453 41.4921C42.1964 36.2551 40.1264 31.2488 37.3122 26.6589C34.7507 22.0411 31.4974 17.8424 27.6653 14.2089C23.1203 10.1739 19.4341 9.27207 17.9322 10.1421C17.4641 10.5225 17.08 10.9958 16.804 11.5322C16.5281 12.0685 16.3664 12.6563 16.3291 13.2583C16.031 15.486 16.1281 17.7488 16.616 19.9427C17.8165 25.2961 19.8649 30.4232 22.6835 35.1302L22.6816 35.1264Z" fill="#00D8FF"/>
</svg>
