<svg width="30" height="30" viewBox="0 0 30 30" fill="none" xmlns="http://www.w3.org/2000/svg">
<path d="M25.018 12.0239L10.1459 26.8991C9.34811 27.6963 8.34878 28.2618 7.25463 28.5353L1.54934 29.9623C1.34047 30.0149 1.12151 30.0124 0.913871 29.9551C0.706231 29.8978 0.51701 29.7876 0.364697 29.6353C0.212383 29.483 0.102188 29.2937 0.0448784 29.0861C-0.0124311 28.8784 -0.0148945 28.6595 0.0377287 28.4506L1.46467 22.7476C1.7384 21.6522 2.30481 20.6519 3.10329 19.8537L17.9729 4.97851L25.018 12.0239ZM28.5417 1.45956C29.4755 2.3936 30 3.66026 30 4.981C30 6.30173 29.4755 7.56839 28.5417 8.50243L26.7786 10.2607L19.7335 3.21779L21.4967 1.45956C21.9592 0.996835 22.5083 0.629771 23.1127 0.379335C23.7172 0.128899 24.365 0 25.0192 0C25.6734 0 26.3213 0.128899 26.9257 0.379335C27.5301 0.629771 28.0792 0.996835 28.5417 1.45956Z" fill="black"/>
</svg>
