<svg width="39" height="45" viewBox="0 0 39 45" fill="none" xmlns="http://www.w3.org/2000/svg">
<g clip-path="url(#clip0_995_6)">
<path d="M27.2304 1.55566C26.7603 0.597656 25.794 0 24.7406 0H14.2594C13.206 0 12.2397 0.597656 11.7696 1.55566L11.1429 2.8125H2.78571C1.24486 2.8125 -1.43051e-06 4.06934 -1.43051e-06 5.625C-1.43051e-06 7.18066 1.24486 8.4375 2.78571 8.4375H36.2143C37.7551 8.4375 39 7.18066 39 5.625C39 4.06934 37.7551 2.8125 36.2143 2.8125H27.8571L27.2304 1.55566ZM36.2143 11.25H2.78571V39.375C2.78571 42.4775 5.28415 45 8.35714 45H30.6429C33.7158 45 36.2143 42.4775 36.2143 39.375V11.25ZM27.8571 16.875C28.6232 16.875 29.25 17.5078 29.25 18.2812V37.9688C29.25 38.7422 28.6232 39.375 27.8571 39.375C27.0911 39.375 26.4643 38.7422 26.4643 37.9688V18.2812C26.4643 17.5078 27.0911 16.875 27.8571 16.875ZM19.5 16.875C20.2661 16.875 20.8929 17.5078 20.8929 18.2812V37.9688C20.8929 38.7422 20.2661 39.375 19.5 39.375C18.7339 39.375 18.1071 38.7422 18.1071 37.9688V18.2812C18.1071 17.5078 18.7339 16.875 19.5 16.875ZM11.1429 16.875C11.9089 16.875 12.5357 17.5078 12.5357 18.2812V37.9688C12.5357 38.7422 11.9089 39.375 11.1429 39.375C10.3768 39.375 9.75 38.7422 9.75 37.9688V18.2812C9.75 17.5078 10.3768 16.875 11.1429 16.875Z" fill="black"/>
</g>
<defs>
<clipPath id="clip0_995_6">
<rect width="39" height="45" fill="white" transform="matrix(-1 0 0 1 39 0)"/>
</clipPath>
</defs>
</svg>
