<svg width="48" height="48" viewBox="0 0 48 48" fill="none" xmlns="http://www.w3.org/2000/svg">
<g filter="url(#filter0_d_621_11)">
<path d="M9 0C7.67392 0 6.40215 0.526784 5.46447 1.46447C4.52678 2.40215 4 3.67392 4 5V35C4 36.3261 4.52678 37.5979 5.46447 38.5355C6.40215 39.4732 7.67392 40 9 40H39C40.3261 40 41.5979 39.4732 42.5355 38.5355C43.4732 37.5979 44 36.3261 44 35V5C44 3.67392 43.4732 2.40215 42.5355 1.46447C41.5979 0.526784 40.3261 0 39 0H9ZM21.2889 12.8444L16.8444 17.2889C16.5319 17.601 16.1083 17.7763 15.6667 17.7763C15.225 17.7763 14.8014 17.601 14.4889 17.2889L12.2667 15.0667C11.9723 14.7507 11.812 14.3328 11.8196 13.9011C11.8272 13.4693 12.0021 13.0573 12.3075 12.752C12.6129 12.4466 13.0248 12.2717 13.4566 12.2641C13.8884 12.2564 14.3063 12.4167 14.6222 12.7111L15.6667 13.7556L18.9333 10.4889C19.0859 10.3251 19.2699 10.1938 19.4744 10.1027C19.6788 10.0116 19.8995 9.96263 20.1233 9.95869C20.3471 9.95474 20.5694 9.9959 20.7769 10.0797C20.9844 10.1636 21.1729 10.2883 21.3312 10.4466C21.4895 10.6048 21.6142 10.7934 21.6981 11.0009C21.7819 11.2084 21.823 11.4307 21.8191 11.6545C21.8151 11.8783 21.7662 12.099 21.6751 12.3034C21.584 12.5079 21.4526 12.6919 21.2889 12.8444ZM34.5556 12.2222C34.9976 12.2222 35.4215 12.3978 35.7341 12.7104C36.0466 13.0229 36.2222 13.4469 36.2222 13.8889C36.2222 14.3309 36.0466 14.7548 35.7341 15.0674C35.4215 15.38 34.9976 15.5556 34.5556 15.5556H26.7778C26.3358 15.5556 25.9118 15.38 25.5993 15.0674C25.2867 14.7548 25.1111 14.3309 25.1111 13.8889C25.1111 13.4469 25.2867 13.0229 25.5993 12.7104C25.9118 12.3978 26.3358 12.2222 26.7778 12.2222H34.5556ZM25.1111 26.1111C25.1111 25.6691 25.2867 25.2452 25.5993 24.9326C25.9118 24.62 26.3358 24.4444 26.7778 24.4444H34.5556C34.9976 24.4444 35.4215 24.62 35.7341 24.9326C36.0466 25.2452 36.2222 25.6691 36.2222 26.1111C36.2222 26.5531 36.0466 26.9771 35.7341 27.2896C35.4215 27.6022 34.9976 27.7778 34.5556 27.7778H26.7778C26.3358 27.7778 25.9118 27.6022 25.5993 27.2896C25.2867 26.9771 25.1111 26.5531 25.1111 26.1111ZM21.2889 22.7111C21.601 23.0236 21.7763 23.4472 21.7763 23.8889C21.7763 24.3306 21.601 24.7542 21.2889 25.0667L16.8444 29.5111C16.5319 29.8232 16.1083 29.9985 15.6667 29.9985C15.225 29.9985 14.8014 29.8232 14.4889 29.5111L12.2667 27.2889C12.1029 27.1363 11.9716 26.9523 11.8805 26.7479C11.7894 26.5434 11.7404 26.3227 11.7365 26.0989C11.7325 25.8752 11.7737 25.6529 11.8575 25.4453C11.9413 25.2378 12.0661 25.0493 12.2244 24.891C12.3826 24.7328 12.5711 24.608 12.7787 24.5242C12.9862 24.4403 13.2085 24.3992 13.4323 24.4031C13.6561 24.4071 13.8768 24.4561 14.0812 24.5472C14.2856 24.6382 14.4696 24.7696 14.6222 24.9333L15.6667 25.9778L18.9333 22.7111C19.2458 22.399 19.6694 22.2237 20.1111 22.2237C20.5528 22.2237 20.9764 22.399 21.2889 22.7111Z" fill="#FCFCFC"/>
</g>
<defs>
<filter id="filter0_d_621_11" x="0" y="0" width="48" height="48" filterUnits="userSpaceOnUse" color-interpolation-filters="sRGB">
<feFlood flood-opacity="0" result="BackgroundImageFix"/>
<feColorMatrix in="SourceAlpha" type="matrix" values="0 0 0 0 0 0 0 0 0 0 0 0 0 0 0 0 0 0 127 0" result="hardAlpha"/>
<feOffset dy="4"/>
<feGaussianBlur stdDeviation="2"/>
<feComposite in2="hardAlpha" operator="out"/>
<feColorMatrix type="matrix" values="0 0 0 0 0 0 0 0 0 0 0 0 0 0 0 0 0 0 0.25 0"/>
<feBlend mode="normal" in2="BackgroundImageFix" result="effect1_dropShadow_621_11"/>
<feBlend mode="normal" in="SourceGraphic" in2="effect1_dropShadow_621_11" result="shape"/>
</filter>
</defs>
</svg>
