<svg width="28" height="28" viewBox="0 0 28 28" fill="none" xmlns="http://www.w3.org/2000/svg">
<rect width="28" height="28" rx="14" fill="#FCFCFC"/>
<path d="M20.9211 7.20354C20.915 7.1739 20.9005 7.14662 20.8795 7.12489C20.8584 7.10317 20.8316 7.0879 20.8022 7.08088C18.8411 6.60098 14.3099 8.31114 11.855 10.7673C11.4171 11.202 11.018 11.6741 10.662 12.1782C9.90497 12.1112 9.14792 12.1671 8.50271 12.4487C6.68226 13.2506 6.15223 15.3432 6.00457 16.2433C5.9962 16.2926 5.99936 16.3431 6.0138 16.391C6.02825 16.4388 6.05359 16.4827 6.08782 16.519C6.12206 16.5554 6.16426 16.5833 6.21111 16.6006C6.25796 16.6179 6.30818 16.6241 6.35781 16.6187L9.28118 16.2959C9.28327 16.5165 9.29657 16.7369 9.32103 16.9561C9.33574 17.1084 9.40327 17.2507 9.51188 17.3583L10.6439 18.4887C10.7515 18.5973 10.8936 18.6648 11.0457 18.6797C11.2635 18.7041 11.4825 18.7174 11.7016 18.7196L11.3809 21.6419C11.3755 21.6916 11.3817 21.7418 11.399 21.7887C11.4163 21.8355 11.4443 21.8778 11.4806 21.912C11.5169 21.9463 11.5607 21.9716 11.6084 21.9861C11.6562 22.0006 11.7067 22.0038 11.7559 21.9955C12.6536 21.8514 14.7479 21.3209 15.5444 19.4988C15.8257 18.853 15.8833 18.0989 15.8183 17.3449C16.3232 16.9886 16.7961 16.589 17.2316 16.1505C19.6943 13.698 21.3932 9.26392 20.9211 7.20354ZM14.7747 13.2248C14.5498 12.9999 14.3966 12.7133 14.3345 12.4012C14.2724 12.0891 14.3042 11.7656 14.4258 11.4716C14.5474 11.1776 14.7534 10.9263 15.0177 10.7495C15.2821 10.5727 15.5928 10.4784 15.9107 10.4784C16.2287 10.4784 16.5394 10.5727 16.8038 10.7495C17.0681 10.9263 17.2741 11.1776 17.3957 11.4716C17.5173 11.7656 17.5491 12.0891 17.487 12.4012C17.4249 12.7133 17.2717 12.9999 17.0468 13.2248C16.8977 13.3743 16.7206 13.4928 16.5257 13.5737C16.3307 13.6546 16.1218 13.6963 15.9107 13.6963C15.6997 13.6963 15.4908 13.6546 15.2958 13.5737C15.1009 13.4928 14.9238 13.3743 14.7747 13.2248Z" fill="#3F739C"/>
<path d="M10.4594 19.3449C10.2759 19.5362 9.98164 19.6107 9.62745 19.6745C8.8317 19.8156 8.12901 19.1 8.27196 18.2628C8.32653 17.9454 8.48789 17.5005 8.58832 17.396C8.61027 17.3736 8.62488 17.3445 8.63008 17.313C8.63528 17.2814 8.63079 17.249 8.61726 17.2203C8.60374 17.1915 8.58185 17.168 8.55472 17.1529C8.52759 17.1379 8.49659 17.1321 8.46613 17.1364C8.02114 17.1931 7.60715 17.403 7.29008 17.7329C6.50303 18.5526 6.42871 21.5945 6.42871 21.5945C6.42871 21.5945 9.35327 21.5171 10.1403 20.6974C10.4582 20.3676 10.6602 19.9361 10.7138 19.4724C10.7262 19.3268 10.5558 19.24 10.4594 19.3449V19.3449Z" fill="#3F739C"/>
</svg>
