<svg width="33" height="29" viewBox="0 0 33 29" fill="none" xmlns="http://www.w3.org/2000/svg">
<path d="M32.5422 0.388419C32.5289 0.331857 32.4974 0.279795 32.4515 0.238338C32.4056 0.196881 32.3471 0.167745 32.283 0.154348C28.0059 -0.761472 18.1236 2.5021 12.7695 7.18928C11.8145 8.01886 10.9439 8.91975 10.1676 9.88174C8.51655 9.75383 6.86547 9.86063 5.4583 10.3978C1.48798 11.9283 0.33201 15.9215 0.00997371 17.6393C-0.00829277 17.7334 -0.00140264 17.8298 0.030102 17.9211C0.0616066 18.0124 0.116867 18.0961 0.191536 18.1655C0.266205 18.2349 0.358247 18.2882 0.460423 18.3212C0.562598 18.3542 0.672121 18.366 0.780377 18.3556L7.15611 17.7398C7.16066 18.1607 7.18966 18.5812 7.24301 18.9996C7.27509 19.2902 7.42236 19.5617 7.65924 19.7671L10.1282 21.9243C10.3629 22.1315 10.6728 22.2604 11.0045 22.2888C11.4795 22.3353 11.957 22.3607 12.435 22.3649L11.7354 27.9417C11.7238 28.0365 11.7373 28.1323 11.7751 28.2217C11.8128 28.3112 11.8737 28.3917 11.9529 28.4571C12.0321 28.5224 12.1276 28.5708 12.2317 28.5985C12.3359 28.6261 12.446 28.6323 12.5533 28.6164C14.5111 28.3414 19.0787 27.329 20.816 23.8518C21.4294 22.6194 21.555 21.1805 21.4133 19.7415C22.5144 19.0616 23.5457 18.2989 24.4957 17.4622C29.8666 12.782 33.5718 4.32031 32.5422 0.388419ZM19.1372 11.879C18.6467 11.4498 18.3127 10.9028 18.1772 10.3073C18.0418 9.71173 18.1111 9.09439 18.3763 8.53335C18.6415 7.9723 19.0908 7.49275 19.6673 7.15534C20.2437 6.81794 20.9215 6.63785 21.6149 6.63785C22.3082 6.63785 22.986 6.81794 23.5625 7.15534C24.1389 7.49275 24.5882 7.9723 24.8534 8.53335C25.1187 9.09439 25.1879 9.71173 25.0525 10.3073C24.9171 10.9028 24.583 11.4498 24.0926 11.879C23.7674 12.1642 23.3811 12.3905 22.956 12.5449C22.5308 12.6993 22.0751 12.7788 21.6149 12.7788C21.1546 12.7788 20.6989 12.6993 20.2737 12.5449C19.8486 12.3905 19.4624 12.1642 19.1372 11.879Z" fill="white"/>
<path d="M9.72571 23.5582C9.3256 23.9232 8.68383 24.0655 7.91136 24.1872C6.17586 24.4565 4.64334 23.0908 4.9551 21.4932C5.07411 20.8875 5.42603 20.0385 5.64507 19.839C5.69294 19.7963 5.72481 19.7409 5.73614 19.6807C5.74747 19.6205 5.73769 19.5586 5.70819 19.5038C5.67869 19.4489 5.63096 19.404 5.57179 19.3752C5.51262 19.3465 5.44501 19.3355 5.37857 19.3437C4.40807 19.4519 3.50518 19.8525 2.81366 20.482C1.09715 22.0464 0.935059 27.8512 0.935059 27.8512C0.935059 27.8512 7.31339 27.7036 9.0299 26.1392C9.72327 25.51 10.1638 24.6866 10.2806 23.8016C10.3076 23.5237 9.93598 23.3581 9.72571 23.5582V23.5582Z" fill="white"/>
</svg>
