<svg width="29" height="43" viewBox="0 0 29 43" fill="none" xmlns="http://www.w3.org/2000/svg">
<path d="M24.1882 42.9998C23.5692 43.0014 22.9576 42.9001 22.3983 42.7034C21.839 42.5068 21.3462 42.2198 20.9562 41.8635L0.94262 23.4366C0.333172 22.8871 0 22.1978 0 21.4865C0 20.7751 0.333172 20.0858 0.94262 19.5363L21.6606 1.10946C22.364 0.482278 23.3746 0.087869 24.4703 0.0129955C25.566 -0.061878 26.6569 0.188917 27.5031 0.710208C28.3493 1.2315 28.8814 1.98058 28.9825 2.79267C29.0835 3.60476 28.7451 4.41333 28.0418 5.04051L9.51988 21.5018L27.4202 37.9631C27.9269 38.4139 28.2488 38.9629 28.3477 39.545C28.4467 40.1271 28.3186 40.7181 27.9786 41.2479C27.6386 41.7778 27.1009 42.2244 26.4292 42.5348C25.7575 42.8453 24.9798 43.0066 24.1882 42.9998Z" fill="#3F739C"/>
</svg>
